<?xml version="1.0" standalone="no"?>
<!DOCTYPE svg PUBLIC "-//W3C//DTD SVG 20010904//EN"
 "http://www.w3.org/TR/2001/REC-SVG-20010904/DTD/svg10.dtd">
<svg version="1.0" xmlns="http://www.w3.org/2000/svg"
 width="450.000000pt" height="450.000000pt" viewBox="0 0 450.000000 450.000000"
 preserveAspectRatio="xMidYMid meet">
<metadata>
Created by potrace 1.11, written by Peter Selinger 2001-2013
</metadata>
<g transform="translate(0.000000,450.000000) scale(0.100000,-0.100000)"
fill="#000000" stroke="none">
<path d="M2459 3830 c-134 -23 -236 -141 -199 -230 15 -37 50 -60 90 -60 41 0
66 14 85 48 l16 27 -6 -28 -6 -28 61 31 c113 57 201 67 268 31 36 -19 25 -6
-20 25 -24 15 -77 39 -118 51 l-75 24 55 -6 c68 -7 164 -52 209 -99 l34 -35
-57 -61 c-31 -34 -65 -79 -76 -101 -16 -31 -33 -45 -83 -67 -34 -16 -75 -43
-90 -61 -26 -31 -35 -65 -19 -74 4 -3 54 -8 112 -12 100 -6 107 -8 138 -38 65
-62 126 -216 120 -304 l-3 -48 -65 -17 c-75 -21 -241 -42 -450 -59 -168 -13
-246 -27 -350 -65 -198 -71 -399 -187 -741 -431 -417 -296 -607 -420 -724
-477 -55 -26 -111 -53 -125 -60 -30 -14 -49 -60 -34 -84 21 -34 85 -56 178
-60 74 -4 95 -9 125 -29 34 -24 41 -25 141 -20 109 6 169 19 378 80 67 20 151
41 185 47 97 15 258 12 422 -10 265 -35 428 -23 632 45 236 79 429 212 608
418 74 84 105 105 105 70 0 -58 -168 -255 -304 -356 -154 -117 -346 -208 -534
-254 -89 -22 -129 -26 -237 -26 -71 0 -175 8 -230 16 -160 26 -273 31 -366 18
-119 -17 -126 -24 -57 -56 72 -33 287 -98 398 -120 54 -11 93 -25 108 -38 42
-39 70 -116 83 -227 15 -131 9 -167 -36 -210 -59 -57 -38 -102 28 -61 52 32
124 28 257 -14 123 -39 167 -43 177 -19 10 25 -30 56 -81 61 -60 7 -49 23 17
23 29 0 70 5 92 10 33 8 42 6 53 -7 21 -28 14 -57 -19 -78 -37 -25 -61 -66
-49 -85 10 -15 5 -16 99 22 26 10 44 6 163 -36 73 -26 144 -58 158 -71 28 -25
70 -38 95 -29 12 5 15 14 10 33 -9 37 -21 48 -63 61 -79 24 -122 42 -122 51 0
6 50 7 133 3 203 -11 332 -3 324 20 -2 6 -25 24 -51 40 -46 29 -48 29 -110 18
-96 -18 -226 -13 -226 8 0 4 20 15 44 24 56 22 72 39 51 56 -21 17 -68 8 -153
-29 -39 -17 -81 -31 -94 -31 -70 0 -135 88 -199 269 -26 73 -24 113 5 148 28
33 60 48 200 93 332 106 607 336 764 639 95 183 123 322 117 576 -7 281 -67
480 -208 690 -53 79 -58 100 -22 109 39 10 31 39 -30 104 -41 45 -55 67 -55
90 0 36 -20 45 -143 63 -45 7 -86 19 -90 26 -14 23 -41 14 -122 -39 l-78 -51
-31 35 c-17 19 -50 58 -74 86 -73 87 -198 132 -313 112z m635 -401 c129 -44
242 -147 308 -283 41 -86 52 -150 21 -125 -9 8 -49 55 -88 105 -80 100 -124
138 -205 179 -30 15 -71 41 -92 56 -65 52 -125 51 -179 -2 -17 -16 -36 -28
-42 -26 -21 7 -19 44 5 71 50 58 146 67 272 25z m-204 -169 c23 -12 59 -20 87
-20 39 0 56 -6 86 -31 56 -46 122 -138 167 -230 47 -98 51 -139 14 -176 -23
-23 -31 -25 -85 -20 -78 7 -147 40 -164 81 -7 17 -26 71 -40 121 -29 97 -72
190 -113 243 -21 28 -23 35 -11 43 18 11 14 12 59 -11z m-578 -1945 c24 -10
93 -112 155 -232 64 -124 69 -115 -67 -126 -57 -5 -69 -3 -50 5 100 42 96 39
75 54 -28 21 -73 17 -142 -12 -65 -28 -110 -28 -149 0 -17 13 -19 28 -19 158
0 79 3 150 6 158 6 13 20 15 90 9 46 -4 91 -10 101 -14z"/>
</g>
</svg>
